<svg id="visual" viewBox="0 0 960 540" width="960" height="540" xmlns="http://www.w3.org/2000/svg" xmlns:xlink="http://www.w3.org/1999/xlink" version="1.1"><rect x="0" y="0" width="960" height="540" fill="#6ECED3"></rect><path d="M0 72L22.8 100.3C45.7 128.7 91.3 185.3 137 181.3C182.7 177.3 228.3 112.7 274 90C319.7 67.3 365.3 86.7 411.2 102.5C457 118.3 503 130.7 548.8 121C594.7 111.3 640.3 79.7 686 65.2C731.7 50.7 777.3 53.3 823 89.7C868.7 126 914.3 196 937.2 231L960 266L960 0L937.2 0C914.3 0 868.7 0 823 0C777.3 0 731.7 0 686 0C640.3 0 594.7 0 548.8 0C503 0 457 0 411.2 0C365.3 0 319.7 0 274 0C228.3 0 182.7 0 137 0C91.3 0 45.7 0 22.8 0L0 0Z" fill="#6ECED3" stroke-linecap="round" stroke-linejoin="miter"></path></svg>