<svg id="visual" viewBox="0 0 900 600" width="900" height="600" xmlns="http://www.w3.org/2000/svg" xmlns:xlink="http://www.w3.org/1999/xlink" version="1.1"><path d="M0 161L21.5 151.2C43 141.3 86 121.7 128.8 127C171.7 132.3 214.3 162.7 257.2 159.3C300 156 343 119 385.8 100.8C428.7 82.7 471.3 83.3 514.2 100.7C557 118 600 152 642.8 174.5C685.7 197 728.3 208 771.2 207.3C814 206.7 857 194.3 878.5 188.2L900 182L900 0L878.5 0C857 0 814 0 771.2 0C728.3 0 685.7 0 642.8 0C600 0 557 0 514.2 0C471.3 0 428.7 0 385.8 0C343 0 300 0 257.2 0C214.3 0 171.7 0 128.8 0C86 0 43 0 21.5 0L0 0Z" fill="#7F7FD5" stroke-linecap="round" stroke-linejoin="miter"></path></svg>